<svg width="44" height="44" viewBox="0 0 44 44" fill="none" xmlns="http://www.w3.org/2000/svg">
<circle cx="22" cy="22" r="12" fill="#E9E9E9"/>
<path d="M15.5669 27.1035C15.2183 27.4521 15.2017 28.0747 15.5752 28.4399C15.9404 28.8052 16.563 28.7969 16.9116 28.4482L21.9917 23.3599L27.0801 28.4482C27.437 28.8052 28.0513 28.8052 28.4165 28.4399C28.7734 28.0664 28.7817 27.4604 28.4165 27.1035L23.3364 22.0151L28.4165 16.9351C28.7817 16.5781 28.7817 15.9639 28.4165 15.5986C28.043 15.2417 27.437 15.2334 27.0801 15.5903L21.9917 20.6787L16.9116 15.5903C16.563 15.2417 15.9321 15.2251 15.5752 15.5986C15.21 15.9639 15.2183 16.5864 15.5669 16.9351L20.6553 22.0151L15.5669 27.1035Z" fill="#929292"/>
</svg>
